<mxfile host="app.diagrams.net" agent="Mozilla/5.0 (Windows NT 10.0; Win64; x64) AppleWebKit/537.36 (KHTML, like Gecko) Chrome/130.0.0.0 Safari/537.36" version="25.0.3">
  <diagram name="Page-1" id="O2hifHIMlk8kkj6aS_zA">
    <mxGraphModel grid="1" page="1" gridSize="10" guides="1" tooltips="1" connect="1" arrows="1" fold="1" pageScale="1" pageWidth="850" pageHeight="1100" math="0" shadow="0">
      <root>
        <mxCell id="0" />
        <mxCell id="1" parent="0" />
        <mxCell id="G-jcot0ewqd0Dmb4FGdk-6" value="" style="edgeStyle=orthogonalEdgeStyle;rounded=0;orthogonalLoop=1;jettySize=auto;html=1;" edge="1" parent="1" source="G-jcot0ewqd0Dmb4FGdk-1" target="G-jcot0ewqd0Dmb4FGdk-5">
          <mxGeometry relative="1" as="geometry" />
        </mxCell>
        <mxCell id="G-jcot0ewqd0Dmb4FGdk-1" value="" style="ellipse;whiteSpace=wrap;html=1;" vertex="1" parent="1">
          <mxGeometry x="320" y="40" width="120" height="80" as="geometry" />
        </mxCell>
        <mxCell id="G-jcot0ewqd0Dmb4FGdk-4" value="start" style="text;html=1;align=center;verticalAlign=middle;whiteSpace=wrap;rounded=0;" vertex="1" parent="1">
          <mxGeometry x="350" y="65" width="60" height="30" as="geometry" />
        </mxCell>
        <mxCell id="G-jcot0ewqd0Dmb4FGdk-10" value="" style="edgeStyle=orthogonalEdgeStyle;rounded=0;orthogonalLoop=1;jettySize=auto;html=1;" edge="1" parent="1" source="G-jcot0ewqd0Dmb4FGdk-5" target="G-jcot0ewqd0Dmb4FGdk-9">
          <mxGeometry relative="1" as="geometry" />
        </mxCell>
        <mxCell id="G-jcot0ewqd0Dmb4FGdk-5" value="" style="shape=parallelogram;perimeter=parallelogramPerimeter;whiteSpace=wrap;html=1;fixedSize=1;" vertex="1" parent="1">
          <mxGeometry x="320" y="180" width="120" height="60" as="geometry" />
        </mxCell>
        <mxCell id="G-jcot0ewqd0Dmb4FGdk-7" value="input n" style="text;html=1;align=center;verticalAlign=middle;whiteSpace=wrap;rounded=0;" vertex="1" parent="1">
          <mxGeometry x="350" y="195" width="60" height="30" as="geometry" />
        </mxCell>
        <mxCell id="G-jcot0ewqd0Dmb4FGdk-17" style="edgeStyle=orthogonalEdgeStyle;rounded=0;orthogonalLoop=1;jettySize=auto;html=1;exitX=0.5;exitY=1;exitDx=0;exitDy=0;entryX=0.5;entryY=0;entryDx=0;entryDy=0;" edge="1" parent="1" source="G-jcot0ewqd0Dmb4FGdk-8" target="G-jcot0ewqd0Dmb4FGdk-12">
          <mxGeometry relative="1" as="geometry" />
        </mxCell>
        <mxCell id="G-jcot0ewqd0Dmb4FGdk-8" value="" style="rhombus;whiteSpace=wrap;html=1;" vertex="1" parent="1">
          <mxGeometry x="340" y="305" width="80" height="80" as="geometry" />
        </mxCell>
        <mxCell id="G-jcot0ewqd0Dmb4FGdk-41" style="edgeStyle=orthogonalEdgeStyle;rounded=0;orthogonalLoop=1;jettySize=auto;html=1;exitX=1;exitY=0.5;exitDx=0;exitDy=0;entryX=0.5;entryY=0;entryDx=0;entryDy=0;" edge="1" parent="1" source="G-jcot0ewqd0Dmb4FGdk-9" target="G-jcot0ewqd0Dmb4FGdk-21">
          <mxGeometry relative="1" as="geometry" />
        </mxCell>
        <mxCell id="G-jcot0ewqd0Dmb4FGdk-9" value="n&amp;gt;1" style="text;html=1;align=center;verticalAlign=middle;whiteSpace=wrap;rounded=0;" vertex="1" parent="1">
          <mxGeometry x="350" y="330" width="60" height="30" as="geometry" />
        </mxCell>
        <mxCell id="G-jcot0ewqd0Dmb4FGdk-24" style="edgeStyle=orthogonalEdgeStyle;rounded=0;orthogonalLoop=1;jettySize=auto;html=1;exitX=1;exitY=0.5;exitDx=0;exitDy=0;entryX=0;entryY=0.5;entryDx=0;entryDy=0;" edge="1" parent="1" source="G-jcot0ewqd0Dmb4FGdk-11" target="G-jcot0ewqd0Dmb4FGdk-19">
          <mxGeometry relative="1" as="geometry" />
        </mxCell>
        <mxCell id="G-jcot0ewqd0Dmb4FGdk-34" style="edgeStyle=orthogonalEdgeStyle;rounded=0;orthogonalLoop=1;jettySize=auto;html=1;exitX=0;exitY=0.5;exitDx=0;exitDy=0;entryX=1;entryY=0.5;entryDx=0;entryDy=0;" edge="1" parent="1" source="G-jcot0ewqd0Dmb4FGdk-11" target="G-jcot0ewqd0Dmb4FGdk-32">
          <mxGeometry relative="1" as="geometry" />
        </mxCell>
        <mxCell id="G-jcot0ewqd0Dmb4FGdk-11" value="" style="rhombus;whiteSpace=wrap;html=1;" vertex="1" parent="1">
          <mxGeometry x="340" y="540" width="80" height="80" as="geometry" />
        </mxCell>
        <mxCell id="G-jcot0ewqd0Dmb4FGdk-18" style="edgeStyle=orthogonalEdgeStyle;rounded=0;orthogonalLoop=1;jettySize=auto;html=1;exitX=0.5;exitY=1;exitDx=0;exitDy=0;entryX=0.5;entryY=0;entryDx=0;entryDy=0;" edge="1" parent="1" source="G-jcot0ewqd0Dmb4FGdk-12" target="G-jcot0ewqd0Dmb4FGdk-11">
          <mxGeometry relative="1" as="geometry" />
        </mxCell>
        <mxCell id="G-jcot0ewqd0Dmb4FGdk-12" value="" style="rounded=0;whiteSpace=wrap;html=1;" vertex="1" parent="1">
          <mxGeometry x="320" y="420" width="120" height="60" as="geometry" />
        </mxCell>
        <mxCell id="G-jcot0ewqd0Dmb4FGdk-15" value="i=2" style="text;html=1;align=center;verticalAlign=middle;whiteSpace=wrap;rounded=0;" vertex="1" parent="1">
          <mxGeometry x="350" y="435" width="60" height="30" as="geometry" />
        </mxCell>
        <mxCell id="G-jcot0ewqd0Dmb4FGdk-16" value="i&amp;lt;=sqrt(n)" style="text;html=1;align=center;verticalAlign=middle;whiteSpace=wrap;rounded=0;" vertex="1" parent="1">
          <mxGeometry x="350" y="565" width="60" height="30" as="geometry" />
        </mxCell>
        <mxCell id="G-jcot0ewqd0Dmb4FGdk-22" style="edgeStyle=orthogonalEdgeStyle;rounded=0;orthogonalLoop=1;jettySize=auto;html=1;entryX=0;entryY=0.5;entryDx=0;entryDy=0;" edge="1" parent="1" source="G-jcot0ewqd0Dmb4FGdk-19" target="G-jcot0ewqd0Dmb4FGdk-21">
          <mxGeometry relative="1" as="geometry" />
        </mxCell>
        <mxCell id="G-jcot0ewqd0Dmb4FGdk-27" value="" style="edgeStyle=orthogonalEdgeStyle;rounded=0;orthogonalLoop=1;jettySize=auto;html=1;" edge="1" parent="1" source="G-jcot0ewqd0Dmb4FGdk-19" target="G-jcot0ewqd0Dmb4FGdk-26">
          <mxGeometry relative="1" as="geometry" />
        </mxCell>
        <mxCell id="G-jcot0ewqd0Dmb4FGdk-19" value="" style="rhombus;whiteSpace=wrap;html=1;" vertex="1" parent="1">
          <mxGeometry x="520" y="540" width="80" height="80" as="geometry" />
        </mxCell>
        <mxCell id="G-jcot0ewqd0Dmb4FGdk-20" value="n % i ==0" style="text;html=1;align=center;verticalAlign=middle;whiteSpace=wrap;rounded=0;" vertex="1" parent="1">
          <mxGeometry x="530" y="565" width="60" height="30" as="geometry" />
        </mxCell>
        <mxCell id="G-jcot0ewqd0Dmb4FGdk-37" style="edgeStyle=orthogonalEdgeStyle;rounded=0;orthogonalLoop=1;jettySize=auto;html=1;exitX=0.5;exitY=1;exitDx=0;exitDy=0;entryX=1;entryY=0.5;entryDx=0;entryDy=0;" edge="1" parent="1" source="G-jcot0ewqd0Dmb4FGdk-21" target="G-jcot0ewqd0Dmb4FGdk-35">
          <mxGeometry relative="1" as="geometry" />
        </mxCell>
        <mxCell id="G-jcot0ewqd0Dmb4FGdk-21" value="" style="rounded=1;whiteSpace=wrap;html=1;" vertex="1" parent="1">
          <mxGeometry x="660" y="550" width="120" height="60" as="geometry" />
        </mxCell>
        <mxCell id="G-jcot0ewqd0Dmb4FGdk-23" value="n khong phai la so nguyen to" style="text;html=1;align=center;verticalAlign=middle;whiteSpace=wrap;rounded=0;" vertex="1" parent="1">
          <mxGeometry x="690" y="565" width="60" height="30" as="geometry" />
        </mxCell>
        <mxCell id="G-jcot0ewqd0Dmb4FGdk-28" style="edgeStyle=orthogonalEdgeStyle;rounded=0;orthogonalLoop=1;jettySize=auto;html=1;exitX=0;exitY=0.5;exitDx=0;exitDy=0;entryX=0.5;entryY=1;entryDx=0;entryDy=0;" edge="1" parent="1" source="G-jcot0ewqd0Dmb4FGdk-25" target="G-jcot0ewqd0Dmb4FGdk-11">
          <mxGeometry relative="1" as="geometry" />
        </mxCell>
        <mxCell id="G-jcot0ewqd0Dmb4FGdk-25" value="" style="rounded=0;whiteSpace=wrap;html=1;" vertex="1" parent="1">
          <mxGeometry x="500" y="670" width="120" height="60" as="geometry" />
        </mxCell>
        <mxCell id="G-jcot0ewqd0Dmb4FGdk-26" value="i=i+1" style="text;html=1;align=center;verticalAlign=middle;whiteSpace=wrap;rounded=0;" vertex="1" parent="1">
          <mxGeometry x="530" y="667.5" width="60" height="65" as="geometry" />
        </mxCell>
        <mxCell id="G-jcot0ewqd0Dmb4FGdk-29" value="true" style="text;html=1;align=center;verticalAlign=middle;whiteSpace=wrap;rounded=0;" vertex="1" parent="1">
          <mxGeometry x="590" y="550" width="60" height="30" as="geometry" />
        </mxCell>
        <mxCell id="G-jcot0ewqd0Dmb4FGdk-30" value="false" style="text;html=1;align=center;verticalAlign=middle;whiteSpace=wrap;rounded=0;" vertex="1" parent="1">
          <mxGeometry x="570" y="620" width="60" height="30" as="geometry" />
        </mxCell>
        <mxCell id="G-jcot0ewqd0Dmb4FGdk-31" value="true" style="text;html=1;align=center;verticalAlign=middle;whiteSpace=wrap;rounded=0;" vertex="1" parent="1">
          <mxGeometry x="430" y="550" width="60" height="30" as="geometry" />
        </mxCell>
        <mxCell id="G-jcot0ewqd0Dmb4FGdk-36" style="edgeStyle=orthogonalEdgeStyle;rounded=0;orthogonalLoop=1;jettySize=auto;html=1;exitX=0.5;exitY=1;exitDx=0;exitDy=0;entryX=0;entryY=0.5;entryDx=0;entryDy=0;" edge="1" parent="1" source="G-jcot0ewqd0Dmb4FGdk-32" target="G-jcot0ewqd0Dmb4FGdk-35">
          <mxGeometry relative="1" as="geometry" />
        </mxCell>
        <mxCell id="G-jcot0ewqd0Dmb4FGdk-32" value="" style="rounded=1;whiteSpace=wrap;html=1;" vertex="1" parent="1">
          <mxGeometry x="50" y="550" width="120" height="60" as="geometry" />
        </mxCell>
        <mxCell id="G-jcot0ewqd0Dmb4FGdk-33" value="n la so nguyen to" style="text;html=1;align=center;verticalAlign=middle;whiteSpace=wrap;rounded=0;" vertex="1" parent="1">
          <mxGeometry x="80" y="565" width="60" height="30" as="geometry" />
        </mxCell>
        <mxCell id="G-jcot0ewqd0Dmb4FGdk-35" value="" style="ellipse;whiteSpace=wrap;html=1;" vertex="1" parent="1">
          <mxGeometry x="340" y="780" width="120" height="80" as="geometry" />
        </mxCell>
        <mxCell id="G-jcot0ewqd0Dmb4FGdk-38" value="end" style="text;html=1;align=center;verticalAlign=middle;whiteSpace=wrap;rounded=0;" vertex="1" parent="1">
          <mxGeometry x="370" y="805" width="60" height="30" as="geometry" />
        </mxCell>
        <mxCell id="G-jcot0ewqd0Dmb4FGdk-39" value="false" style="text;html=1;align=center;verticalAlign=middle;whiteSpace=wrap;rounded=0;" vertex="1" parent="1">
          <mxGeometry x="210" y="550" width="60" height="30" as="geometry" />
        </mxCell>
        <mxCell id="G-jcot0ewqd0Dmb4FGdk-40" value="true" style="text;html=1;align=center;verticalAlign=middle;whiteSpace=wrap;rounded=0;" vertex="1" parent="1">
          <mxGeometry x="390" y="385" width="60" height="30" as="geometry" />
        </mxCell>
        <mxCell id="G-jcot0ewqd0Dmb4FGdk-42" value="false" style="text;html=1;align=center;verticalAlign=middle;whiteSpace=wrap;rounded=0;" vertex="1" parent="1">
          <mxGeometry x="460" y="310" width="60" height="30" as="geometry" />
        </mxCell>
      </root>
    </mxGraphModel>
  </diagram>
</mxfile>
